<svg width="30" height="30" viewBox="0 0 30 30" fill="none" xmlns="http://www.w3.org/2000/svg">
<g clip-path="url(#clip0_88_38949)">
<path d="M25 22.5C25.6904 22.5 26.25 23.0596 26.25 23.75C26.25 24.3911 25.7675 24.9194 25.1458 24.9916L25 25H12.5C11.8097 25 11.25 24.4404 11.25 23.75C11.25 23.1089 11.7326 22.5806 12.3542 22.5084L12.5 22.5H25ZM25 16.25C25.6904 16.25 26.25 16.8096 26.25 17.5C26.25 18.1904 25.6904 18.75 25 18.75H5C4.30965 18.75 3.75 18.1904 3.75 17.5C3.75 16.8096 4.30965 16.25 5 16.25H25ZM25 10C25.6904 10 26.25 10.5596 26.25 11.25C26.25 11.891 25.7675 12.4194 25.1458 12.4916L25 12.5H12.5C11.8097 12.5 11.25 11.9403 11.25 11.25C11.25 10.609 11.7326 10.0806 12.3542 10.0084L12.5 10H25ZM25 3.75C25.6904 3.75 26.25 4.30965 26.25 5C26.25 5.64104 25.7675 6.16938 25.1458 6.24159L25 6.25H5C4.30965 6.25 3.75 5.69035 3.75 5C3.75 4.35896 4.23256 3.83062 4.85422 3.75841L5 3.75H25Z" fill="currentColor"/>
</g>
<defs>
<clipPath id="clip0_88_38949">
<rect width="30" height="30" fill="white"/>
</clipPath>
</defs>
</svg>
