<svg width="20" height="20" viewBox="0 0 20 20" fill="none" xmlns="http://www.w3.org/2000/svg">
<g clip-path="url(#clip0_95_17397)">
<path d="M16.6667 14.9997C17.1269 14.9997 17.5 15.3728 17.5 15.833C17.5 16.2604 17.1783 16.6126 16.7639 16.6607L16.6667 16.6663H3.33333C2.8731 16.6663 2.5 16.2933 2.5 15.833C2.5 15.4056 2.8217 15.0534 3.23615 15.0053L3.33333 14.9997H16.6667ZM16.6667 9.16634C17.1269 9.16634 17.5 9.53942 17.5 9.99967C17.5 10.4599 17.1269 10.833 16.6667 10.833H3.33333C2.8731 10.833 2.5 10.4599 2.5 9.99967C2.5 9.53942 2.8731 9.16634 3.33333 9.16634H16.6667ZM16.6667 3.33301C17.1269 3.33301 17.5 3.70611 17.5 4.16634C17.5 4.62657 17.1269 4.99967 16.6667 4.99967H3.33333C2.8731 4.99967 2.5 4.62657 2.5 4.16634C2.5 3.70611 2.8731 3.33301 3.33333 3.33301H16.6667Z" fill="currentColor"/>
</g>
<defs>
<clipPath id="clip0_95_17397">
<rect width="20" height="20" fill="white"/>
</clipPath>
</defs>
</svg>
