<svg width="20" height="20" viewBox="0 0 20 20" fill="none" xmlns="http://www.w3.org/2000/svg">
<path d="M15.6704 14.5825L4.98192 3.89403C4.67909 3.5912 4.1881 3.5912 3.88527 3.89403C3.58244 4.19686 3.58244 4.68784 3.88527 4.99067L14.5737 15.6791C14.8766 15.982 15.3675 15.982 15.6704 15.6791C15.9732 15.3763 15.9732 14.8853 15.6704 14.5825Z" fill="currentColor"/>
<path d="M4.98098 15.6635L15.6694 4.97508C15.9723 4.67225 15.9723 4.18126 15.6694 3.87843C15.3666 3.5756 14.8756 3.5756 14.5728 3.87843L3.88434 14.5669C3.5815 14.8697 3.5815 15.3607 3.88434 15.6635C4.18717 15.9664 4.67815 15.9664 4.98098 15.6635Z" fill="currentColor"/>
</svg>
