<svg width="24" height="24" viewBox="0 0 24 24" fill="none" xmlns="http://www.w3.org/2000/svg">
<g clip-path="url(#clip0_168_20258)">
<path d="M12 17C12.2967 17 12.5867 17.088 12.8334 17.2528C13.08 17.4176 13.2723 17.6519 13.3858 17.926C13.4993 18.2001 13.5291 18.5017 13.4712 18.7926C13.4133 19.0836 13.2704 19.3509 13.0607 19.5607C12.8509 19.7704 12.5836 19.9133 12.2926 19.9712C12.0017 20.0291 11.7001 19.9994 11.426 19.8858C11.1519 19.7723 10.9176 19.58 10.7528 19.3334C10.588 19.0867 10.5 18.7967 10.5 18.5C10.5 18.1022 10.658 17.7206 10.9393 17.4393C11.2206 17.158 11.6022 17 12 17ZM12 11C12.2967 11 12.5867 11.088 12.8334 11.2528C13.08 11.4176 13.2723 11.6519 13.3858 11.926C13.4993 12.2001 13.5291 12.5017 13.4712 12.7926C13.4133 13.0836 13.2704 13.3509 13.0607 13.5607C12.8509 13.7704 12.5836 13.9133 12.2926 13.9712C12.0017 14.0291 11.7001 13.9994 11.426 13.8858C11.1519 13.7723 10.9176 13.58 10.7528 13.3334C10.588 13.0867 10.5 12.7967 10.5 12.5C10.5 12.1022 10.658 11.7206 10.9393 11.4393C11.2206 11.158 11.6022 11 12 11ZM12 5C12.2967 5 12.5867 5.08797 12.8334 5.2528C13.08 5.41762 13.2723 5.65189 13.3858 5.92597C13.4994 6.20006 13.5291 6.50166 13.4712 6.79264C13.4133 7.08361 13.2704 7.35088 13.0607 7.56066C12.8509 7.77044 12.5836 7.9133 12.2926 7.97118C12.0017 8.02906 11.7001 7.99935 11.426 7.88582C11.1519 7.77229 10.9176 7.58003 10.7528 7.33336C10.588 7.08668 10.5 6.79667 10.5 6.5C10.5 6.10218 10.658 5.72064 10.9393 5.43934C11.2206 5.15804 11.6022 5 12 5V5Z" fill="currentColor"/>
</g>
<defs>
<clipPath id="clip0_168_20258">
<rect width="24" height="24" fill="white"/>
</clipPath>
</defs>
</svg>
