<svg width="20" height="20" viewBox="0 0 20 20" fill="none" xmlns="http://www.w3.org/2000/svg">
<path fill-rule="evenodd" clip-rule="evenodd" d="M2.86196 14.8619C2.6016 15.1223 2.6016 15.5444 2.86196 15.8048C3.1223 16.0651 3.54441 16.0651 3.80476 15.8048L9.13809 10.4714C9.39845 10.2111 9.39845 9.78895 9.13809 9.5286L3.80476 4.19527C3.54441 3.93491 3.1223 3.93491 2.86196 4.19527C2.6016 4.45562 2.6016 4.87772 2.86196 5.13807L7.72388 10L2.86196 14.8619ZM10.862 14.8619C10.6016 15.1223 10.6016 15.5444 10.862 15.8048C11.1223 16.0651 11.5444 16.0651 11.8048 15.8048L17.1382 10.4714C17.3984 10.2111 17.3984 9.78895 17.1382 9.5286L11.8048 4.19527C11.5444 3.93491 11.1223 3.93491 10.862 4.19527C10.6016 4.45562 10.6016 4.87772 10.862 5.13807L15.7239 10L10.862 14.8619Z" fill="currentColor"/>
</svg>
