<svg width="20" height="20" viewBox="0 0 20 20" fill="none" xmlns="http://www.w3.org/2000/svg">
<path fill-rule="evenodd" clip-rule="evenodd" d="M17.1381 5.14008C17.3985 4.87968 17.3985 4.45755 17.1381 4.19715C16.8778 3.93688 16.4557 3.93688 16.1953 4.19715L10.862 9.53055C10.6016 9.7909 10.6016 10.213 10.862 10.4733L16.1953 15.8067C16.4557 16.067 16.8778 16.067 17.1381 15.8067C17.3985 15.5463 17.3985 15.1242 17.1381 14.8639L12.2762 10.0019L17.1381 5.14008ZM9.13813 5.14008C9.39849 4.87968 9.39849 4.45755 9.13813 4.19715C8.87779 3.93688 8.45568 3.93688 8.19534 4.19715L2.86194 9.53055C2.60167 9.7909 2.60167 10.213 2.86194 10.4733L8.19534 15.8067C8.45568 16.067 8.87779 16.067 9.13814 15.8067C9.3985 15.5463 9.3985 15.1242 9.13814 14.8639L4.2762 10.0019L9.13813 5.14008Z" fill="currentColor"/>
</svg>
