<svg width="20" height="20" viewBox="0 0 20 20" fill="none" xmlns="http://www.w3.org/2000/svg">
<path d="M17 5.1375H14.8625V3.3875C14.8625 2.8206 14.6373 2.27692 14.2364 1.87606C13.8356 1.4752 13.2919 1.25 12.725 1.25H3.3875C2.8206 1.25 2.27692 1.4752 1.87606 1.87606C1.4752 2.27692 1.25 2.8206 1.25 3.3875V12.725C1.25165 13.2914 1.47738 13.8341 1.87788 14.2346C2.27838 14.6351 2.82111 14.8609 3.3875 14.8625H5.1375V17C5.13912 17.4615 5.3223 17.9038 5.64744 18.2312C5.97258 18.5587 6.41355 18.7451 6.875 18.75H17C17.4636 18.7484 17.9078 18.5634 18.2356 18.2356C18.5634 17.9078 18.7484 17.4636 18.75 17V6.875C18.7451 6.41355 18.5587 5.97258 18.2312 5.64744C17.9038 5.3223 17.4615 5.13912 17 5.1375ZM3.3875 13.6938C3.13057 13.6937 2.88417 13.5917 2.70249 13.41C2.52081 13.2283 2.41875 12.9819 2.41875 12.725V3.3875C2.41792 3.26005 2.44241 3.1337 2.4908 3.0158C2.53919 2.89789 2.61052 2.79076 2.70064 2.70064C2.79076 2.61052 2.89789 2.53919 3.0158 2.4908C3.1337 2.44241 3.26005 2.41792 3.3875 2.41875H12.725C12.9819 2.41875 13.2283 2.52081 13.41 2.70249C13.5917 2.88417 13.6937 3.13057 13.6938 3.3875V5.1375H6.875C6.4157 5.14238 5.97659 5.327 5.65179 5.65179C5.327 5.97659 5.14238 6.4157 5.1375 6.875V13.6938H3.3875ZM17.5812 17C17.5812 17.1542 17.52 17.302 17.411 17.411C17.302 17.52 17.1542 17.5812 17 17.5812H6.875C6.72084 17.5812 6.573 17.52 6.46399 17.411C6.35499 17.302 6.29375 17.1542 6.29375 17V6.875C6.29375 6.72084 6.35499 6.573 6.46399 6.46399C6.573 6.35499 6.72084 6.29375 6.875 6.29375H17C17.1542 6.29375 17.302 6.35499 17.411 6.46399C17.52 6.573 17.5812 6.72084 17.5812 6.875V17Z" fill="currentColor"/>
</svg>
