<svg width="30" height="30" viewBox="0 0 30 30" fill="none" xmlns="http://www.w3.org/2000/svg">
<path fill-rule="evenodd" clip-rule="evenodd" d="M15 4.42307C9.15852 4.42307 4.42307 9.15852 4.42307 15C4.42307 20.8415 9.15852 25.5769 15 25.5769C20.8415 25.5769 25.5769 20.8415 25.5769 15C25.5769 9.15852 20.8415 4.42307 15 4.42307ZM2.5 15C2.5 8.09644 8.09644 2.5 15 2.5C21.9035 2.5 27.5 8.09644 27.5 15C27.5 21.9035 21.9035 27.5 15 27.5C8.09644 27.5 2.5 21.9035 2.5 15Z" fill="currentColor"/>
<path fill-rule="evenodd" clip-rule="evenodd" d="M10.3838 18.2695C10.7024 17.8446 11.3051 17.7585 11.7299 18.0771C12.3083 18.511 12.7824 18.7717 13.2614 18.9315C13.7404 19.0911 14.2762 19.1669 14.9992 19.1669C15.7222 19.1669 16.2579 19.0911 16.7369 18.9315C17.2159 18.7717 17.69 18.511 18.2684 18.0771C18.6933 17.7585 19.2959 17.8446 19.6145 18.2695C19.9332 18.6944 19.847 19.297 19.4223 19.6156C18.734 20.1317 18.0767 20.512 17.345 20.7559C16.6134 20.9997 15.8594 21.09 14.9992 21.09C14.1389 21.09 13.3849 20.9997 12.6533 20.7559C11.9217 20.512 11.2643 20.1317 10.5761 19.6156C10.1512 19.297 10.0651 18.6944 10.3838 18.2695Z" fill="currentColor"/>
<path d="M12.4352 11.1541C12.4352 11.8622 11.8612 12.4362 11.1531 12.4362C10.4451 12.4362 9.87109 11.8622 9.87109 11.1541C9.87109 10.4461 10.4451 9.87207 11.1531 9.87207C11.8612 9.87207 12.4352 10.4461 12.4352 11.1541Z" fill="currentColor"/>
<path d="M20.1286 11.1541C20.1286 11.8622 19.5546 12.4362 18.8465 12.4362C18.1385 12.4362 17.5645 11.8622 17.5645 11.1541C17.5645 10.4461 18.1385 9.87207 18.8465 9.87207C19.5546 9.87207 20.1286 10.4461 20.1286 11.1541Z" fill="currentColor"/>
</svg>
