<svg width="20" height="20" viewBox="0 0 20 20" fill="none" xmlns="http://www.w3.org/2000/svg">
<path d="M16.4361 3.46933C15.5619 3 14.6233 2.75153 13.5619 2.75153C12.3134 2.75153 11.0619 3.09509 9.87479 3.40798C8.68767 3.72086 7.59258 4.03374 6.50056 4.03374C5.7705 4.03374 5.11099 3.89264 4.50056 3.6135V3.12577C4.50056 2.78221 4.21835 2.5 3.87479 2.5C3.53123 2.5 3.24902 2.78221 3.24902 3.12577V16.8742C3.24902 17.2178 3.53123 17.5 3.87479 17.5C4.21835 17.5 4.50056 17.2178 4.50056 16.8742V12.3344C5.11405 12.546 5.76436 12.6564 6.46988 12.6564C7.71835 12.6564 8.96988 12.3129 10.157 12.0307C11.3441 11.7178 12.4392 11.4049 13.5312 11.4049C14.3748 11.4049 15.1263 11.592 15.8134 11.9663C16.203 12.2331 16.7521 11.9018 16.7521 11.4356V4.03067C16.746 3.78221 16.6233 3.59509 16.4361 3.46933ZM15.4975 10.4387C14.8717 10.2209 14.2153 10.1258 13.5282 10.1258C12.2797 10.1258 11.0282 10.4693 9.84105 10.7822C8.65393 11.0951 7.55884 11.408 6.46681 11.408C5.74902 11.408 5.09258 11.2822 4.49749 11.0031V4.93865C5.12326 5.15644 5.7797 5.25153 6.46681 5.25153C7.71528 5.25153 8.96682 4.90798 10.1539 4.59509C11.341 4.28221 12.4361 3.96933 13.5282 3.96933C14.246 3.96933 14.9024 4.09509 15.4975 4.37423V10.4387Z" fill="currentColor"/>
</svg>
