<svg width="20" height="20" viewBox="0 0 20 20" fill="none" xmlns="http://www.w3.org/2000/svg">
<path d="M8.52663 8.52567C10.1046 6.94776 12.6331 6.89994 14.2686 8.38223L14.4192 8.52567L16.7762 10.8827C18.4035 12.5098 18.4035 15.148 16.7762 16.7752C15.1983 18.3531 12.6698 18.4009 11.0344 16.9186L10.8837 16.7752L9.11596 15.0074C8.79046 14.682 8.79046 14.1543 9.11596 13.8289C9.41634 13.5285 9.88899 13.5054 10.2159 13.7596L10.2945 13.8289L12.0622 15.5967C13.0385 16.573 14.6215 16.573 15.5977 15.5967C16.535 14.6595 16.5725 13.1632 15.7102 12.1812L15.5977 12.0612L13.2407 9.70417C12.2644 8.72784 10.6815 8.72784 9.70529 9.70417C9.37979 10.0296 8.85221 10.0296 8.52671 9.70417C8.20132 9.37876 8.20127 8.85109 8.52663 8.52567ZM3.22332 3.22234C4.80119 1.64447 7.32973 1.59665 8.96522 3.0789L9.11587 3.22234L10.8836 4.99011C11.209 5.31554 11.209 5.84318 10.8836 6.16862C10.5832 6.46902 10.1105 6.49213 9.78363 6.23794L9.70512 6.16862L7.93736 4.40085C6.96105 3.42454 5.37814 3.42454 4.40183 4.40085C3.46457 5.3381 3.42708 6.83441 4.28935 7.81639L4.40183 7.93638L6.75885 10.2934C7.73516 11.2698 9.31812 11.2697 10.2944 10.2934C10.6198 9.96792 11.1475 9.96792 11.4729 10.2934C11.7984 10.6188 11.7983 11.1465 11.4729 11.4719C9.89502 13.0498 7.36649 13.0976 5.731 11.6154L5.58034 11.4719L3.22332 9.11492C1.59613 7.48771 1.59613 4.84952 3.22332 3.22234Z" fill="currentColor"/>
</svg>
