<svg width="40" height="40" viewBox="0 0 40 40" fill="none" xmlns="http://www.w3.org/2000/svg">
<path d="M17.6253 39.8984L24.9298 36.4645C25.7231 36.0916 25.7125 34.9412 24.9125 34.5834L17.6961 31.3565C16.7327 30.9257 15.8411 32.0874 16.4859 32.9332L17.976 34.8878C18.2541 35.2526 18.2601 35.7609 17.9907 36.1324L16.383 38.3494C15.7601 39.2084 16.6726 40.3462 17.6253 39.8984Z" fill="#4D3DDB"/>
<path d="M23.2803 0.10055L15.9757 3.5294C15.1824 3.90178 15.193 5.05055 15.993 5.40777L23.2094 8.62998C24.1728 9.06014 25.0644 7.9001 24.4196 7.05553L22.9295 5.10386C22.6514 4.73957 22.6454 4.23201 22.9148 3.86104L24.5225 1.64729C25.1455 0.789571 24.2329 -0.34663 23.2803 0.10055Z" fill="#D7D4F7"/>
<path d="M32.4059 36.8007L35.1832 29.128C35.4849 28.2947 34.6775 27.4897 33.8631 27.8117L26.5171 30.7161C25.5365 31.1039 25.7137 32.565 26.7577 32.6993L29.1702 33.0095C29.6205 33.0674 29.9781 33.4221 30.0459 33.8781L30.4506 36.599C30.6073 37.6532 32.0437 37.8014 32.4059 36.8007Z" fill="#6153DF"/>
<path d="M8.50706 3.19535L5.72973 10.8681C5.4281 11.7014 6.23546 12.5064 7.04986 12.1844L14.3958 9.27994C15.3765 8.8922 15.1993 7.43107 14.1553 7.29683L11.7428 6.98662C11.2925 6.92872 10.9348 6.574 10.867 6.11803L10.4624 3.39713C10.3056 2.34291 8.86927 2.19469 8.50706 3.19535Z" fill="#D7D4F7"/>
<path d="M3.95663 31.3213L10.5327 36.0327C11.2469 36.5444 12.2212 35.9605 12.1258 35.0779L11.2657 27.1172C11.1508 26.0545 9.7158 25.8503 9.31797 26.84L8.39864 29.1272C8.22704 29.5542 7.79722 29.8133 7.34617 29.7619L4.65454 29.4547C3.61167 29.3357 3.099 30.7069 3.95663 31.3213Z" fill="#2BD4CE"/>
<path d="M36.9562 8.6728L30.3802 3.96142C29.666 3.44975 28.6916 4.03369 28.787 4.91623L29.6472 12.8769C29.762 13.9396 31.197 14.1439 31.5949 13.1541L32.5142 10.8669C32.6858 10.44 33.1156 10.1808 33.5667 10.2323L36.2583 10.5394C37.3012 10.6584 37.8138 9.28724 36.9562 8.6728Z" fill="#B0A9EF"/>
<path d="M39.9011 23.8944L36.5261 16.4733C36.1595 15.6673 35.0288 15.6781 34.6772 16.4909L31.5056 23.8224C31.0822 24.8012 32.2241 25.7071 33.0554 25.052L34.9764 23.5381C35.3349 23.2555 35.8345 23.2494 36.1997 23.5231L38.3786 25.1565C39.2229 25.7894 40.3412 24.8623 39.9011 23.8944Z" fill="#887EE7"/>
<path d="M0.0993159 18.0333L3.47429 25.4545C3.84082 26.2604 4.97153 26.2496 5.32314 25.4369L8.49472 18.1053C8.91812 17.1265 7.77631 16.2206 6.94501 16.8758L5.024 18.3896C4.66544 18.6722 4.16586 18.6783 3.80071 18.4046L1.62175 16.7712C0.777509 16.1383 -0.340839 17.0655 0.0993159 18.0333Z" fill="#27BEB9"/>
</svg>
