<svg width="24" height="24" viewBox="0 0 24 24" fill="none" xmlns="http://www.w3.org/2000/svg">
<path d="M14 2.25H10C8.74071 2.25159 7.53345 2.75254 6.643 3.643C5.75254 4.53345 5.25159 5.74071 5.25 7V17C5.25159 18.2593 5.75254 19.4666 6.643 20.357C7.53345 21.2475 8.74071 21.7484 10 21.75H14C15.2593 21.7484 16.4665 21.2475 17.357 20.357C18.2475 19.4666 18.7484 18.2593 18.75 17V7C18.7484 5.74071 18.2475 4.53345 17.357 3.643C16.4665 2.75254 15.2593 2.25159 14 2.25ZM17.25 17C17.2489 17.8616 16.9062 18.6877 16.2969 19.2969C15.6877 19.9062 14.8616 20.2489 14 20.25H10C9.13837 20.2489 8.31234 19.9062 7.70307 19.2969C7.09381 18.6877 6.75106 17.8616 6.75 17V7C6.75106 6.13837 7.09381 5.31234 7.70307 4.70307C8.31234 4.09381 9.13837 3.75106 10 3.75H14C14.8616 3.75106 15.6877 4.09381 16.2969 4.70307C16.9062 5.31234 17.2489 6.13837 17.25 7V17ZM13.75 18C13.75 18.1989 13.671 18.3897 13.5303 18.5303C13.3897 18.671 13.1989 18.75 13 18.75H11C10.8011 18.75 10.6103 18.671 10.4697 18.5303C10.329 18.3897 10.25 18.1989 10.25 18C10.25 17.8011 10.329 17.6103 10.4697 17.4697C10.6103 17.329 10.8011 17.25 11 17.25H13C13.1989 17.25 13.3897 17.329 13.5303 17.4697C13.671 17.6103 13.75 17.8011 13.75 18Z" fill="currentColor"/>
</svg>
