<svg width="30" height="30" viewBox="0 0 30 30" fill="none" xmlns="http://www.w3.org/2000/svg">
<path fill-rule="evenodd" clip-rule="evenodd" d="M19.5014 3.25115C19.8675 2.88503 20.4611 2.88504 20.8272 3.25115L26.7487 9.17273C27.1148 9.53885 27.1148 10.1324 26.7487 10.4986C26.3826 10.8647 25.789 10.8647 25.4229 10.4985L19.5013 4.57697C19.1352 4.21085 19.1352 3.61726 19.5014 3.25115ZM16.9903 6.92427C16.7791 6.65312 16.4261 6.50856 16.0662 6.58055L7.94344 8.20509C7.91342 8.2111 7.88318 8.21706 7.85278 8.22306C7.4934 8.29399 7.10993 8.36967 6.78125 8.56595C6.49548 8.73664 6.2523 8.97035 6.07044 9.24928C5.86135 9.56996 5.77061 9.95014 5.68558 10.3064C5.67838 10.3366 5.67122 10.3665 5.66404 10.3963L1.58869 27.2798C1.51206 27.5973 1.60617 27.9318 1.8371 28.1627C2.06804 28.3936 2.40251 28.4877 2.71999 28.4111L19.6036 24.3359C19.6335 24.3287 19.6637 24.3214 19.694 24.3142C20.05 24.2292 20.43 24.1384 20.7505 23.9295C21.0288 23.7479 21.263 23.5049 21.4338 23.2187M16.9903 6.92427C17.0204 6.9478 17.0495 6.97342 17.0772 7.00115L23.1629 13.0869C23.3846 13.3085 23.4808 13.6263 23.4193 13.9336L21.7948 22.0564C21.7888 22.0864 21.7828 22.1166 21.7768 22.1471C21.7059 22.5063 21.6301 22.8901 21.4338 23.2187M15.9419 8.51754L21.4823 14.0579L19.9562 21.6887C19.9086 21.927 19.8809 22.0631 19.8539 22.1641C19.8373 22.2262 19.8268 22.2513 19.8237 22.2579C19.7999 22.2977 19.767 22.3322 19.7273 22.3583C19.7208 22.3617 19.6961 22.3731 19.6346 22.3922C19.5347 22.4232 19.3998 22.4562 19.1637 22.5132L5.51896 25.8067L12.0739 19.2517C12.5698 19.5291 13.1414 19.6873 13.75 19.6873C15.6485 19.6873 17.1875 18.1483 17.1875 16.2498C17.1875 14.3514 15.6486 12.8123 13.75 12.8123C11.8515 12.8123 10.3125 14.3514 10.3125 16.2498C10.3125 16.8584 10.4707 17.43 10.7481 17.9259L4.19316 24.4808L7.4867 10.8363C7.54371 10.6 7.57673 10.4651 7.60769 10.3652C7.62673 10.3038 7.63822 10.2791 7.64156 10.2726C7.66727 10.2334 7.70154 10.2004 7.74182 10.1762C7.74839 10.1731 7.77356 10.1626 7.83574 10.146C7.93677 10.119 8.07288 10.0913 8.31115 10.0437L15.9419 8.51754ZM7.74182 10.1762L7.73997 10.1772L7.74182 10.1762ZM7.64258 10.2708L7.64156 10.2726L7.64258 10.2708ZM12.6604 17.3697C12.6555 17.3646 12.6505 17.3594 12.6454 17.3544C12.6404 17.3493 12.6352 17.3443 12.6301 17.3394C12.3562 17.0579 12.1875 16.6736 12.1875 16.2498C12.1875 15.3869 12.8871 14.6873 13.75 14.6873C14.613 14.6873 15.3125 15.3869 15.3125 16.2498C15.3125 17.1128 14.613 17.8123 13.75 17.8123C13.3263 17.8123 12.9419 17.6436 12.6604 17.3697ZM19.7291 22.3573L19.7273 22.3583L19.7291 22.3573Z" fill="currentColor"/>
</svg>
