<svg width="24" height="24" viewBox="0 0 24 24" fill="none" xmlns="http://www.w3.org/2000/svg">
<path d="M21 12C21 11.5983 20.6744 11.2727 20.2727 11.2727H12.7273V3.72727C12.7273 3.32561 12.4017 3 12 3C11.5983 3 11.2727 3.32561 11.2727 3.72727V11.2727H3.72727C3.32561 11.2727 3 11.5983 3 12C3 12.4017 3.32561 12.7273 3.72727 12.7273H11.2727V20.2727C11.2727 20.6744 11.5983 21 12 21C12.4017 21 12.7273 20.6744 12.7273 20.2727V12.7273H20.2727C20.6744 12.7273 21 12.4017 21 12Z" fill="#1F2937"/>
</svg>
