<svg width="20" height="20" viewBox="0 0 20 20" fill="none" xmlns="http://www.w3.org/2000/svg">
<path d="M14.5177 3.67519H4.49273L6.05937 2.10858C6.30104 1.86691 6.30104 1.46686 6.05937 1.2252C5.81771 0.983529 5.41771 0.983529 5.17604 1.2252L2.54271 3.85856C2.48438 3.9169 2.44273 3.98355 2.4094 4.05855C2.37607 4.13355 2.35938 4.21686 2.35938 4.30019C2.35938 4.38353 2.37607 4.4669 2.4094 4.5419C2.44273 4.61689 2.48438 4.68355 2.54271 4.74189L5.17604 7.3752C5.30104 7.5002 5.45937 7.55856 5.61771 7.55856C5.77604 7.55856 5.93437 7.5002 6.05937 7.3752C6.30104 7.13354 6.30104 6.73354 6.05937 6.49187L4.49273 4.92519H14.5177C15.5511 4.92519 16.3927 5.76686 16.3927 6.8002V9.56691C16.3927 9.90858 16.6761 10.1919 17.0177 10.1919C17.3594 10.1919 17.6427 9.90858 17.6427 9.56691V6.8002C17.6427 5.0752 16.2427 3.67519 14.5177 3.67519Z" fill="currentColor"/>
<path d="M17.6427 15.7003C17.6427 15.6169 17.6261 15.5336 17.5927 15.4586C17.5594 15.3836 17.5177 15.3169 17.4594 15.2586L14.8261 12.6253C14.5844 12.3836 14.1844 12.3836 13.9427 12.6253C13.7011 12.8669 13.7011 13.2669 13.9427 13.5086L15.5094 15.0753H5.48437C4.45104 15.0753 3.60937 14.2336 3.60937 13.2003V10.4336C3.60937 10.0919 3.32604 9.80859 2.98437 9.80859C2.64271 9.80859 2.35938 10.0919 2.35938 10.4336V13.2003C2.35938 14.9253 3.75937 16.3253 5.48437 16.3253H15.5094L13.9427 17.8919C13.7011 18.1336 13.7011 18.5336 13.9427 18.7753C14.0677 18.9003 14.2261 18.9586 14.3844 18.9586C14.5427 18.9586 14.7011 18.9003 14.8261 18.7753L17.4594 16.1419C17.5177 16.0836 17.5594 16.0169 17.5927 15.9419C17.6261 15.8669 17.6427 15.7836 17.6427 15.7003Z" fill="currentColor"/>
</svg>
