<svg width="16" height="16" viewBox="0 0 16 16" fill="none" xmlns="http://www.w3.org/2000/svg">
<path fill-rule="evenodd" clip-rule="evenodd" d="M15.6869 3.64645C15.8822 3.84171 15.8822 4.15829 15.6869 4.35355L9.35357 10.6869C9.2598 10.7807 9.13263 10.8333 9.00002 10.8333C8.86741 10.8333 8.74023 10.7807 8.64647 10.6869L5.66669 7.70711L1.02024 12.3536C0.824978 12.5488 0.508396 12.5488 0.313134 12.3536C0.117871 12.1583 0.117871 11.8417 0.313134 11.6464L5.31313 6.64645C5.4069 6.55268 5.53408 6.5 5.66669 6.5C5.79929 6.5 5.92647 6.55268 6.02024 6.64645L9.00002 9.62623L14.9798 3.64645C15.1751 3.45118 15.4916 3.45118 15.6869 3.64645Z" fill="currentColor"/>
<path fill-rule="evenodd" clip-rule="evenodd" d="M10.8333 4C10.8333 3.72386 11.0572 3.5 11.3333 3.5H15.3333C15.6095 3.5 15.8333 3.72386 15.8333 4V8C15.8333 8.27614 15.6095 8.5 15.3333 8.5C15.0572 8.5 14.8333 8.27614 14.8333 8V4.5H11.3333C11.0572 4.5 10.8333 4.27614 10.8333 4Z" fill="currentColor"/>
</svg>
