<svg width="16" height="16" viewBox="0 0 16 16" fill="none" xmlns="http://www.w3.org/2000/svg">
<path fill-rule="evenodd" clip-rule="evenodd" d="M0.313073 3.64645C0.508335 3.45118 0.824917 3.45118 1.02018 3.64645L5.66663 8.29289L8.64641 5.31311C8.74017 5.21935 8.86735 5.16667 8.99996 5.16667C9.13257 5.16667 9.25974 5.21935 9.35351 5.31311L15.6868 11.6464C15.8821 11.8417 15.8821 12.1583 15.6868 12.3536C15.4916 12.5488 15.175 12.5488 14.9797 12.3536L8.99996 6.37377L6.02018 9.35355C5.92641 9.44732 5.79923 9.5 5.66663 9.5C5.53402 9.5 5.40684 9.44732 5.31307 9.35355L0.313073 4.35355C0.11781 4.15829 0.11781 3.84171 0.313073 3.64645Z" fill="currentColor"/>
<path fill-rule="evenodd" clip-rule="evenodd" d="M15.3334 7.5C15.6095 7.5 15.8334 7.72386 15.8334 8V12C15.8334 12.2761 15.6095 12.5 15.3334 12.5H11.3334C11.0572 12.5 10.8334 12.2761 10.8334 12C10.8334 11.7239 11.0572 11.5 11.3334 11.5H14.8334V8C14.8334 7.72386 15.0572 7.5 15.3334 7.5Z" fill="currentColor"/>
</svg>
